<?xml version="1.0" encoding="UTF-8"?>
<svg xmlns="http://www.w3.org/2000/svg" width="1080" height="1080" viewBox="0 0 1080 1080">
  <defs>
    <radialGradient id="washA" cx="16%" cy="86%" r="42%">
      <stop offset="0" stop-color="#EAF5FF" stop-opacity="0.95"/>
      <stop offset="1" stop-color="#EAF5FF" stop-opacity="0"/>
    </radialGradient>
    <radialGradient id="washB" cx="92%" cy="8%" r="36%">
      <stop offset="0" stop-color="#ECF7EF" stop-opacity="0.95"/>
      <stop offset="1" stop-color="#ECF7EF" stop-opacity="0"/>
    </radialGradient>
    <radialGradient id="washC" cx="68%" cy="62%" r="48%">
      <stop offset="0" stop-color="#FFFFFF" stop-opacity="0.62"/>
      <stop offset="1" stop-color="#FFFFFF" stop-opacity="0"/>
    </radialGradient>
    <filter id="softBlur">
      <feGaussianBlur stdDeviation="18"/>
    </filter>
  </defs>
  <rect width="1080" height="1080" fill="#F8FBFA" />
  <rect width="1080" height="1080" fill="url(#washA)" />
  <rect width="1080" height="1080" fill="url(#washB)" />
  <rect width="1080" height="1080" fill="url(#washC)" />
  <g opacity="0.18" filter="url(#softBlur)">
    <circle cx="206" cy="886" r="126" fill="#4DBA7B" opacity="1" />
    <circle cx="920" cy="128" r="108" fill="#E6B84E" opacity="1" />
    <ellipse cx="834" cy="864" rx="164" ry="86" fill="#ECF7EF" opacity="0.7" transform="rotate(-18 834 864)" />
  </g>
  <g fill="none" stroke="#CDE0D5" stroke-width="3" opacity="0.56">
    <circle cx="906" cy="116" r="128"/>
    <circle cx="906" cy="116" r="168"/>
    <circle cx="116" cy="944" r="156"/>
    <circle cx="116" cy="944" r="204"/>
  </g>
  <g opacity="0.82">
    <line x1="810.9" y1="152" x2="857.1" y2="152" stroke="#B8D8FF" stroke-width="4" stroke-linecap="round" opacity="1" />
    <line x1="834" y1="128.9" x2="834" y2="175.1" stroke="#B8D8FF" stroke-width="4" stroke-linecap="round" opacity="1" />
    <line x1="816.906" y1="134.906" x2="851.094" y2="169.094" stroke="#B8D8FF" stroke-width="4" stroke-linecap="round" opacity="1" />
    <line x1="851.094" y1="134.906" x2="816.906" y2="169.094" stroke="#B8D8FF" stroke-width="4" stroke-linecap="round" opacity="1" />
    <circle cx="834" cy="152" r="4" fill="#B8D8FF" opacity="0.9" />
  </g>
<g opacity="0.82">
    <line x1="911.96" y1="238" x2="948.04" y2="238" stroke="#B8D8FF" stroke-width="4" stroke-linecap="round" opacity="1" />
    <line x1="930" y1="219.96" x2="930" y2="256.04" stroke="#B8D8FF" stroke-width="4" stroke-linecap="round" opacity="1" />
    <line x1="916.6504" y1="224.6504" x2="943.3496" y2="251.3496" stroke="#B8D8FF" stroke-width="4" stroke-linecap="round" opacity="1" />
    <line x1="943.3496" y1="224.6504" x2="916.6504" y2="251.3496" stroke="#B8D8FF" stroke-width="4" stroke-linecap="round" opacity="1" />
    <circle cx="930" cy="238" r="4" fill="#B8D8FF" opacity="0.9" />
  </g>
<g opacity="0.82">
    <line x1="893.6" y1="820" x2="946.4" y2="820" stroke="#FFFFFF" stroke-width="4" stroke-linecap="round" opacity="1" />
    <line x1="920" y1="793.6" x2="920" y2="846.4" stroke="#FFFFFF" stroke-width="4" stroke-linecap="round" opacity="1" />
    <line x1="900.464" y1="800.464" x2="939.536" y2="839.536" stroke="#FFFFFF" stroke-width="4" stroke-linecap="round" opacity="1" />
    <line x1="939.536" y1="800.464" x2="900.464" y2="839.536" stroke="#FFFFFF" stroke-width="4" stroke-linecap="round" opacity="1" />
    <circle cx="920" cy="820" r="4" fill="#FFFFFF" opacity="0.9" />
  </g>
<g opacity="0.96" transform="translate(68 248)">
    <polygon points="68,0 132,74 102,72 162,138 124,136 196,220 -4,220 68,136 30,138 92,72 62,74" fill="#58B86F"/>
    <rect x="80" y="220" width="30" height="48" rx="6" fill="#8B623E"/>
    <circle cx="58" cy="90" r="10" fill="#F24E65" opacity="0.95" />
    <circle cx="112" cy="110" r="10" fill="#F2C94C" opacity="0.95" />
    <circle cx="88" cy="150" r="10" fill="#F24E65" opacity="0.95" />
    <circle cx="132" cy="166" r="10" fill="#7ED4FF" opacity="0.95" />
    <path d="M 94 -8 L 105 14 L 130 18 L 112 34 L 116 58 L 94 46 L 72 58 L 76 34 L 58 18 L 83 14 Z" fill="#F0C14B" opacity="0.96" />
  </g>
<path d="M 918 738 L 936 776 L 976 782 L 946 810 L 954 852 L 918 830 L 882 852 L 890 810 L 860 782 L 900 776 Z" fill="#F2BF4D" opacity="0.94" />
<path d="M 176 165.6 L 181.4 186.6 L 202.4 192 L 181.4 197.4 L 176 218.4 L 170.6 197.4 L 149.6 192 L 170.6 186.6 Z" fill="#FFFFFF" opacity="0.9" /><circle cx="142.4" cy="220.8" r="4.199999999999999" fill="#FFFFFF" opacity="0.63" /><circle cx="207.2" cy="160.8" r="3.3600000000000003" fill="#FFFFFF" opacity="0.63" />
<path d="M 862 208.2 L 866.05 223.95 L 881.8 228 L 866.05 232.05 L 862 247.8 L 857.95 232.05 L 842.2 228 L 857.95 223.95 Z" fill="#FFFFFF" opacity="0.88" /><circle cx="836.8" cy="249.6" r="3.15" fill="#FFFFFF" opacity="0.616" /><circle cx="885.4" cy="204.6" r="2.5200000000000005" fill="#FFFFFF" opacity="0.616" />
<path d="M 178 889.8 L 182.95 909.05 L 202.2 914 L 182.95 918.95 L 178 938.2 L 173.05 918.95 L 153.8 914 L 173.05 909.05 Z" fill="#FFFFFF" opacity="0.88" /><circle cx="147.2" cy="940.4" r="3.8499999999999996" fill="#FFFFFF" opacity="0.616" /><circle cx="206.6" cy="885.4" r="3.08" fill="#FFFFFF" opacity="0.616" />
<path d="M 902 881.8 L 906.95 901.05 L 926.2 906 L 906.95 910.95 L 902 930.2 L 897.05 910.95 L 877.8 906 L 897.05 901.05 Z" fill="#FFFFFF" opacity="0.88" /><circle cx="871.2" cy="932.4" r="3.8499999999999996" fill="#FFFFFF" opacity="0.616" /><circle cx="930.6" cy="877.4" r="3.08" fill="#FFFFFF" opacity="0.616" />
<path d="M 760 788.4 L 763.6 802.4 L 777.6 806 L 763.6 809.6 L 760 823.6 L 756.4 809.6 L 742.4 806 L 756.4 802.4 Z" fill="#E6B84E" opacity="0.58" /><circle cx="737.6" cy="825.2" r="2.8" fill="#E6B84E" opacity="0.40599999999999997" /><circle cx="780.8" cy="785.2" r="2.24" fill="#E6B84E" opacity="0.40599999999999997" />
</svg>