<svg width="512" height="512" viewBox="0 0 512 512" fill="none" xmlns="http://www.w3.org/2000/svg" role="img" aria-label="VTUR app icon">
	<defs>
		<linearGradient id="bg" x1="72" y1="48" x2="440" y2="464" gradientUnits="userSpaceOnUse">
			<stop offset="0" stop-color="#3B3792"/>
			<stop offset="1" stop-color="#1E1B4B"/>
		</linearGradient>
	</defs>
	<rect x="36" y="36" width="440" height="440" rx="88" fill="url(#bg)"/>
	<rect x="36.75" y="36.75" width="438.5" height="438.5" rx="87.25" stroke="rgba(255,255,255,0.18)"/>
	<g transform="translate(88 144) scale(0.48)">
		<path d="M12.7249 22.9462C16.8347 22.4744 24.0805 22.6777 28.4243 22.6837L55.3519 22.7032C81.5257 22.7028 109.01 22.265 135.084 22.7834C137.244 25.0433 145.276 39.9771 147.351 43.6233L178.06 97.7298L219.979 171.672L232.506 193.814C234.882 198.024 238.461 204.134 240.328 208.486C243.356 202.488 246.176 196.831 249.644 191.071C269.172 191.222 288.701 191.272 308.23 191.22C309.942 191.18 311.37 191.164 313.081 191.242C328.746 190.954 344.691 191.502 360.327 190.98C352.784 204.639 345.132 218.237 337.365 231.772C335.746 234.633 328.701 247.475 327.344 249.156C325.067 254.258 317.707 266.44 314.637 271.824L288.43 317.762L255.922 375.089C249.439 386.613 240.963 402.591 233.79 413.243C231.814 410.646 227.954 403.539 226.105 400.318L210.931 373.612L163.272 289.371L12.7249 22.9462Z" fill="white"/>
		<path d="M564.557 22.79C598.168 22.4897 633.274 22.3495 666.868 22.707C657.176 41.4345 645.085 61.4357 634.633 79.9052L619.55 106.511C616.756 111.476 613.363 117.962 610.322 122.579L585.646 122.588L436.017 122.728C413.901 122.702 391.44 122.929 369.351 122.655C360.106 122.974 349.177 122.705 339.82 122.71L283.386 122.741C281.204 122.706 280.942 122.969 279.736 120.932C277.465 117.094 275.359 113.157 273.191 109.258C269.532 102.681 265.838 96.1234 262.109 89.5852C249.443 67.4823 237.002 45.2508 224.789 22.8941C236.503 22.192 252.686 22.9512 264.803 22.8383C274.071 22.7519 289.622 22.343 298.329 22.9832C304.047 22.7121 311.105 22.8953 316.953 22.9101L349.96 22.9905L386.55 23.0192C392.394 23.0236 399.618 22.8211 405.368 23.0691C411.446 22.7618 419.595 22.9894 425.798 22.9776L465.333 22.9035C498.168 22.8358 531.782 22.3585 564.557 22.79Z" fill="white"/>
		<path d="M454.397 191.174L533.049 191.251C544.982 191.251 561.487 191.704 573.12 190.99C558.37 217.772 543.278 244.366 527.849 270.764L459.133 390.097L422.731 453.442C418.179 461.277 413.621 469.852 408.856 477.427C403.798 485.469 391.506 495.11 382.136 497.69C377.47 499.569 372.596 500.872 367.613 501.569C358.737 502.75 345.685 502.224 336.513 502.395C316.233 502.777 295.001 501.846 274.793 502.458C282.383 490.207 289.609 476.844 297.046 464.387C309.989 441.534 323.097 418.774 336.368 396.109L397.463 290.036L434.493 225.807L446.966 203.91C449.181 200.016 451.945 194.825 454.397 191.174Z" fill="white"/>
	</g>
</svg>