<svg xmlns="http://www.w3.org/2000/svg" viewBox="0 0 1024 768" role="img" aria-label="VTUR simbolo">
  <defs>
    <linearGradient id="topBarFill" x1="0" y1="0" x2="1" y2="1">
      <stop offset="0%" stop-color="#133f40"/>
      <stop offset="52%" stop-color="#4fb0aa"/>
      <stop offset="100%" stop-color="#154f4b"/>
    </linearGradient>
    <linearGradient id="leftMarkFill" x1="0.08" y1="0" x2="0.82" y2="1">
      <stop offset="0%" stop-color="#15375f"/>
      <stop offset="58%" stop-color="#213a7a"/>
      <stop offset="100%" stop-color="#161544"/>
    </linearGradient>
    <linearGradient id="rightMarkFill" x1="0.1" y1="0" x2="0.9" y2="1">
      <stop offset="0%" stop-color="#5ea5e3"/>
      <stop offset="42%" stop-color="#1d497e"/>
      <stop offset="100%" stop-color="#11143e"/>
    </linearGradient>
    <linearGradient id="edgeLight" x1="0" y1="0" x2="1" y2="1">
      <stop offset="0%" stop-color="#b8d7ff" stop-opacity="0.75"/>
      <stop offset="100%" stop-color="#ffffff" stop-opacity="0"/>
    </linearGradient>
    <filter id="softShadow" x="-20%" y="-20%" width="140%" height="140%">
      <feDropShadow dx="0" dy="10" stdDeviation="10" flood-color="#0f172a" flood-opacity="0.2"/>
    </filter>
  </defs>

  <g filter="url(#softShadow)">
    <path fill="url(#topBarFill)" d="M342 20 H1012 L976 115 H425 Z"/>
    <path fill="#0f2b2d" d="M335 12 H1024 L1007 34 H347 Z" opacity="0.92"/>
    <path fill="#082326" d="M421 115 H979 L969 124 H426 Z" opacity="0.95"/>
    <path fill="url(#edgeLight)" d="M365 31 H940 C860 34 784 54 721 74 C625 105 515 112 401 112 Z" opacity="0.3"/>
  </g>

  <g filter="url(#softShadow)">
    <path fill="url(#leftMarkFill)" d="M18 18 H252 L366 252 L543 252 L352 628 Z"/>
    <path fill="#7ba2d6" d="M28 21 H244 L250 35 H39 Z" opacity="0.55"/>
    <path fill="#8fb4e2" d="M242 34 L354 264 L369 252 L252 19 Z" opacity="0.45"/>
    <path fill="#0f163f" d="M350 628 L543 252 L527 283 L368 604 Z" opacity="0.78"/>
    <path fill="#b8d7ff" d="M477 266 H543 L522 286 H465 Z" opacity="0.65"/>
  </g>

  <g filter="url(#softShadow)">
    <path fill="url(#rightMarkFill)" d="M696 250 H881 L640 690 C620 724 589 744 550 748 H416 Z"/>
    <path fill="#95cbff" d="M707 258 H874 L863 276 H699 Z" opacity="0.58"/>
    <path fill="#103763" d="M637 690 H416 L431 674 H651 Z" opacity="0.82"/>
    <path fill="#0d1238" d="M551 748 H416 L430 730 H578 C600 727 620 712 635 690 Z" opacity="0.88"/>
  </g>
</svg>
